{
  "accessors": [
    {
      "bufferView": 1,
      "componentType": 5126,
      "count": 65532,
      "max": [
        67.21015930175781,
        26.387605667114258,
        -142.05810546875
      ],
      "min": [
        33.29338455200195,
        -29.937114715576172,
        -177.2399139404297
      ],
      "type": "VEC3"
    },
    {
      "bufferView": 1,
      "byteOffset": 786384,
      "componentType": 5126,
      "count": 65532,
      "max": [
        0.9999889731407166,
        0.9999918341636658,
        0.9999977350234985
      ],
      "min": [
        -0.9999968409538269,
        -0.999937891960144,
        -0.9999736547470093
      ],
      "type": "VEC3"
    },
    {
      "bufferView": 2,
      "componentType": 5126,
      "count": 65532,
      "max": [
        1.0,
        1.0,
        1.0,
        1.0
      ],
      "min": [
        0.9686274528503418,
        0.9686274528503418,
        0.9686274528503418,
        1.0
      ],
      "type": "VEC4"
    },
    {
      "bufferView": 0,
      "componentType": 5125,
      "count": 349704,
      "type": "SCALAR"
    },
    {
      "bufferView": 1,
      "byteOffset": 1572768,
      "componentType": 5126,
      "count": 65532,
      "max": [
        55.04282760620117,
        30.042388916015625,
        -145.68202209472656
      ],
      "min": [
        32.596927642822266,
        -35.58049392700195,
        -175.01239013671875
      ],
      "type": "VEC3"
    },
    {
      "bufferView": 1,
      "byteOffset": 2359152,
      "componentType": 5126,
      "count": 65532,
      "max": [
        0.9999647736549377,
        1.0,
        0.9999886751174927
      ],
      "min": [
        -0.9999992251396179,
        -0.9999942779541016,
        -0.9999918341636658
      ],
      "type": "VEC3"
    },
    {
      "bufferView": 2,
      "byteOffset": 1048512,
      "componentType": 5126,
      "count": 65532,
      "max": [
        1.0,
        1.0,
        1.0,
        1.0
      ],
      "min": [
        0.9686274528503418,
        0.9686274528503418,
        0.9686274528503418,
        1.0
      ],
      "type": "VEC4"
    },
    {
      "bufferView": 0,
      "byteOffset": 1398816,
      "componentType": 5125,
      "count": 328038,
      "type": "SCALAR"
    },
    {
      "bufferView": 1,
      "byteOffset": 3145536,
      "componentType": 5126,
      "count": 65532,
      "max": [
        63.32147979736328,
        30.127592086791992,
        -140.1620330810547
      ],
      "min": [
        32.83642578125,
        -58.95873260498047,
        -176.81626892089844
      ],
      "type": "VEC3"
    },
    {
      "bufferView": 1,
      "byteOffset": 3931920,
      "componentType": 5126,
      "count": 65532,
      "max": [
        0.9999998211860657,
        0.9999998211860657,
        0.999954342842102
      ],
      "min": [
        -0.9999769926071167,
        -0.9998974204063416,
        -0.9999984502792358
      ],
      "type": "VEC3"
    },
    {
      "bufferView": 2,
      "byteOffset": 2097024,
      "componentType": 5126,
      "count": 65532,
      "max": [
        1.0,
        1.0,
        1.0,
        1.0
      ],
      "min": [
        0.9686274528503418,
        0.9686274528503418,
        0.9686274528503418,
        1.0
      ],
      "type": "VEC4"
    },
    {
      "bufferView": 0,
      "byteOffset": 2710968,
      "componentType": 5125,
      "count": 333468,
      "type": "SCALAR"
    },
    {
      "bufferView": 1,
      "byteOffset": 4718304,
      "componentType": 5126,
      "count": 65532,
      "max": [
        61.62098693847656,
        30.019521713256836,
        -140.05604553222656
      ],
      "min": [
        33.760372161865234,
        -58.802284240722656,
        -176.79762268066406
      ],
      "type": "VEC3"
    },
    {
      "bufferView": 1,
      "byteOffset": 5504688,
      "componentType": 5126,
      "count": 65532,
      "max": [
        0.9999883770942688,
        0.9998739957809448,
        0.9999977350234985
      ],
      "min": [
        -0.9999902844429016,
        -0.9998795986175537,
        -0.9999938607215881
      ],
      "type": "VEC3"
    },
    {
      "bufferView": 2,
      "byteOffset": 3145536,
      "componentType": 5126,
      "count": 65532,
      "max": [
        1.0,
        1.0,
        1.0,
        1.0
      ],
      "min": [
        0.9686274528503418,
        0.9686274528503418,
        0.9686274528503418,
        1.0
      ],
      "type": "VEC4"
    },
    {
      "bufferView": 0,
      "byteOffset": 4044840,
      "componentType": 5125,
      "count": 337365,
      "type": "SCALAR"
    },
    {
      "bufferView": 1,
      "byteOffset": 6291072,
      "componentType": 5126,
      "count": 65532,
      "max": [
        66.05793762207031,
        29.969940185546875,
        -139.86334228515625
      ],
      "min": [
        38.644676208496094,
        -58.865440368652344,
        -176.74227905273438
      ],
      "type": "VEC3"
    },
    {
      "bufferView": 1,
      "byteOffset": 7077456,
      "componentType": 5126,
      "count": 65532,
      "max": [
        0.9999998211860657,
        0.9999897480010986,
        0.9999891519546509
      ],
      "min": [
        -1.0,
        -0.9999851584434509,
        -0.9999893307685852
      ],
      "type": "VEC3"
    },
    {
      "bufferView": 2,
      "byteOffset": 4194048,
      "componentType": 5126,
      "count": 65532,
      "max": [
        1.0,
        1.0,
        1.0,
        1.0
      ],
      "min": [
        0.9686274528503418,
        0.9686274528503418,
        0.9686274528503418,
        1.0
      ],
      "type": "VEC4"
    },
    {
      "bufferView": 0,
      "byteOffset": 5394300,
      "componentType": 5125,
      "count": 311718,
      "type": "SCALAR"
    },
    {
      "bufferView": 1,
      "byteOffset": 7863840,
      "componentType": 5126,
      "count": 65532,
      "max": [
        68.82781219482422,
        27.95965576171875,
        -139.88002014160156
      ],
      "min": [
        50.97209548950195,
        -20.15578269958496,
        -175.0259246826172
      ],
      "type": "VEC3"
    },
    {
      "bufferView": 1,
      "byteOffset": 8650224,
      "componentType": 5126,
      "count": 65532,
      "max": [
        0.9999971389770508,
        0.9999997019767761,
        0.9999574422836304
      ],
      "min": [
        -0.999891996383667,
        -1.0,
        -0.9999999403953552
      ],
      "type": "VEC3"
    },
    {
      "bufferView": 2,
      "byteOffset": 5242560,
      "componentType": 5126,
      "count": 65532,
      "max": [
        1.0,
        1.0,
        1.0,
        1.0
      ],
      "min": [
        0.9686274528503418,
        0.9686274528503418,
        0.9686274528503418,
        1.0
      ],
      "type": "VEC4"
    },
    {
      "bufferView": 0,
      "byteOffset": 6641172,
      "componentType": 5125,
      "count": 356169,
      "type": "SCALAR"
    },
    {
      "bufferView": 1,
      "byteOffset": 9436608,
      "componentType": 5126,
      "count": 65534,
      "max": [
        62.672245025634766,
        30.028888702392578,
        -139.88253784179688
      ],
      "min": [
        32.59898376464844,
        -56.030269622802734,
        -177.22830200195313
      ],
      "type": "VEC3"
    },
    {
      "bufferView": 1,
      "byteOffset": 10223016,
      "componentType": 5126,
      "count": 65534,
      "max": [
        0.9999749660491943,
        0.9999812841415405,
        0.9999999403953552
      ],
      "min": [
        -1.0,
        -0.9999936819076538,
        -1.0
      ],
      "type": "VEC3"
    },
    {
      "bufferView": 2,
      "byteOffset": 6291072,
      "componentType": 5126,
      "count": 65534,
      "max": [
        1.0,
        1.0,
        1.0,
        1.0
      ],
      "min": [
        0.9686274528503418,
        0.9686274528503418,
        0.9686274528503418,
        1.0
      ],
      "type": "VEC4"
    },
    {
      "bufferView": 0,
      "byteOffset": 8065848,
      "componentType": 5125,
      "count": 252906,
      "type": "SCALAR"
    },
    {
      "bufferView": 1,
      "byteOffset": 11009424,
      "componentType": 5126,
      "count": 65532,
      "max": [
        68.78394317626953,
        30.012195587158203,
        -140.04107666015625
      ],
      "min": [
        34.053627014160156,
        -58.92975997924805,
        -177.05137634277344
      ],
      "type": "VEC3"
    },
    {
      "bufferView": 1,
      "byteOffset": 11795808,
      "componentType": 5126,
      "count": 65532,
      "max": [
        0.9999972581863403,
        1.0,
        0.9999997615814209
      ],
      "min": [
        -1.0,
        -0.9999932646751404,
        -0.9999927878379822
      ],
      "type": "VEC3"
    },
    {
      "bufferView": 2,
      "byteOffset": 7339616,
      "componentType": 5126,
      "count": 65532,
      "max": [
        1.0,
        1.0,
        1.0,
        1.0
      ],
      "min": [
        0.9686274528503418,
        0.9686274528503418,
        0.9686274528503418,
        1.0
      ],
      "type": "VEC4"
    },
    {
      "bufferView": 0,
      "byteOffset": 9077472,
      "componentType": 5125,
      "count": 234879,
      "type": "SCALAR"
    },
    {
      "bufferView": 1,
      "byteOffset": 12582192,
      "componentType": 5126,
      "count": 7320,
      "max": [
        51.81886672973633,
        29.257150650024414,
        -140.37432861328125
      ],
      "min": [
        39.2811164855957,
        -19.372844696044922,
        -177.18682861328125
      ],
      "type": "VEC3"
    },
    {
      "bufferView": 1,
      "byteOffset": 12670032,
      "componentType": 5126,
      "count": 7320,
      "max": [
        0.9992121458053589,
        0.9999472498893738,
        0.9996415376663208
      ],
      "min": [
        -0.999991238117218,
        -0.9999925494194031,
        -0.9998499751091003
      ],
      "type": "VEC3"
    },
    {
      "bufferView": 2,
      "byteOffset": 8388128,
      "componentType": 5126,
      "count": 7320,
      "max": [
        1.0,
        1.0,
        1.0,
        1.0
      ],
      "min": [
        0.9686274528503418,
        0.9686274528503418,
        0.9686274528503418,
        1.0
      ],
      "type": "VEC4"
    },
    {
      "bufferView": 0,
      "byteOffset": 10016988,
      "componentType": 5125,
      "count": 20655,
      "type": "SCALAR"
    }
  ],
  "asset": {
    "extras": {
      "author": "Chapel_Prints_CO (https://sketchfab.com/McKie_Foundation)",
      "license": "CC-BY-4.0 (http://creativecommons.org/licenses/by/4.0/)",
      "source": "https://sketchfab.com/3d-models/carrion-crow-corvus-corone-reconstructed-eca85e10314e4a0c920e1c76d7f0ae38",
      "title": "Carrion Crow (Corvus corone) - Reconstructed"
    },
    "generator": "Sketchfab-15.12.0",
    "version": "2.0"
  },
  "bufferViews": [
    {
      "buffer": 0,
      "byteLength": 10099608,
      "name": "floatBufferViews",
      "target": 34963
    },
    {
      "buffer": 0,
      "byteLength": 12757872,
      "byteOffset": 10099608,
      "byteStride": 12,
      "name": "floatBufferViews",
      "target": 34962
    },
    {
      "buffer": 0,
      "byteLength": 8505248,
      "byteOffset": 22857480,
      "byteStride": 16,
      "name": "floatBufferViews",
      "target": 34962
    }
  ],
  "buffers": [
    {
      "byteLength": 31362728,
      "uri": "scene.bin"
    }
  ],
  "materials": [
    {
      "doubleSided": true,
      "name": "Scene_-_Root",
      "pbrMetallicRoughness": {
        "metallicFactor": 0.0,
        "roughnessFactor": 0.6
      }
    }
  ],
  "meshes": [
    {
      "name": "Object_0",
      "primitives": [
        {
          "attributes": {
            "COLOR_0": 2,
            "NORMAL": 1,
            "POSITION": 0
          },
          "indices": 3,
          "material": 0,
          "mode": 4
        }
      ]
    },
    {
      "name": "Object_1",
      "primitives": [
        {
          "attributes": {
            "COLOR_0": 6,
            "NORMAL": 5,
            "POSITION": 4
          },
          "indices": 7,
          "material": 0,
          "mode": 4
        }
      ]
    },
    {
      "name": "Object_2",
      "primitives": [
        {
          "attributes": {
            "COLOR_0": 10,
            "NORMAL": 9,
            "POSITION": 8
          },
          "indices": 11,
          "material": 0,
          "mode": 4
        }
      ]
    },
    {
      "name": "Object_3",
      "primitives": [
        {
          "attributes": {
            "COLOR_0": 14,
            "NORMAL": 13,
            "POSITION": 12
          },
          "indices": 15,
          "material": 0,
          "mode": 4
        }
      ]
    },
    {
      "name": "Object_4",
      "primitives": [
        {
          "attributes": {
            "COLOR_0": 18,
            "NORMAL": 17,
            "POSITION": 16
          },
          "indices": 19,
          "material": 0,
          "mode": 4
        }
      ]
    },
    {
      "name": "Object_5",
      "primitives": [
        {
          "attributes": {
            "COLOR_0": 22,
            "NORMAL": 21,
            "POSITION": 20
          },
          "indices": 23,
          "material": 0,
          "mode": 4
        }
      ]
    },
    {
      "name": "Object_6",
      "primitives": [
        {
          "attributes": {
            "COLOR_0": 26,
            "NORMAL": 25,
            "POSITION": 24
          },
          "indices": 27,
          "material": 0,
          "mode": 4
        }
      ]
    },
    {
      "name": "Object_7",
      "primitives": [
        {
          "attributes": {
            "COLOR_0": 30,
            "NORMAL": 29,
            "POSITION": 28
          },
          "indices": 31,
          "material": 0,
          "mode": 4
        }
      ]
    },
    {
      "name": "Object_8",
      "primitives": [
        {
          "attributes": {
            "COLOR_0": 34,
            "NORMAL": 33,
            "POSITION": 32
          },
          "indices": 35,
          "material": 0,
          "mode": 4
        }
      ]
    }
  ],
  "nodes": [
    {
      "children": [
        1
      ],
      "matrix": [
        1.0,
        0.0,
        0.0,
        0.0,
        0.0,
        2.220446049250313e-16,
        -1.0,
        0.0,
        0.0,
        1.0,
        2.220446049250313e-16,
        0.0,
        0.0,
        0.0,
        0.0,
        1.0
      ],
      "name": "Sketchfab_model"
    },
    {
      "children": [
        2,
        3,
        4,
        5,
        6,
        7,
        8,
        9,
        10
      ],
      "name": "crow reconstructed 1.stl.cleaner.materialmerger.gles"
    },
    {
      "mesh": 0,
      "name": "Object_2"
    },
    {
      "mesh": 1,
      "name": "Object_3"
    },
    {
      "mesh": 2,
      "name": "Object_4"
    },
    {
      "mesh": 3,
      "name": "Object_5"
    },
    {
      "mesh": 4,
      "name": "Object_6"
    },
    {
      "mesh": 5,
      "name": "Object_7"
    },
    {
      "mesh": 6,
      "name": "Object_8"
    },
    {
      "mesh": 7,
      "name": "Object_9"
    },
    {
      "mesh": 8,
      "name": "Object_10"
    }
  ],
  "scene": 0,
  "scenes": [
    {
      "name": "Sketchfab_Scene",
      "nodes": [
        0
      ]
    }
  ]
}
