{
  "accessors": [
    {
      "bufferView": 2,
      "componentType": 5126,
      "count": 65532,
      "max": [
        4.583632946014404,
        7.920842170715332,
        13.1987886428833
      ],
      "min": [
        -4.571928977966309,
        -10.803177833557129,
        -13.574397087097168
      ],
      "type": "VEC3"
    },
    {
      "bufferView": 2,
      "byteOffset": 786384,
      "componentType": 5126,
      "count": 65532,
      "max": [
        0.9999943971633911,
        0.9999802708625793,
        0.9998496174812317
      ],
      "min": [
        -0.9999850392341614,
        -0.9999945163726807,
        -0.9999608993530273
      ],
      "type": "VEC3"
    },
    {
      "bufferView": 1,
      "componentType": 5126,
      "count": 65532,
      "max": [
        0.9998390078544617,
        0.9998630285263062
      ],
      "min": [
        9.40000027185306e-05,
        9.101629257202148e-05
      ],
      "type": "VEC2"
    },
    {
      "bufferView": 0,
      "componentType": 5125,
      "count": 204543,
      "type": "SCALAR"
    },
    {
      "bufferView": 2,
      "byteOffset": 1572768,
      "componentType": 5126,
      "count": 65532,
      "max": [
        4.397250175476074,
        7.886183738708496,
        16.78892707824707
      ],
      "min": [
        -4.407702922821045,
        -10.756783485412598,
        -13.234734535217285
      ],
      "type": "VEC3"
    },
    {
      "bufferView": 2,
      "byteOffset": 2359152,
      "componentType": 5126,
      "count": 65532,
      "max": [
        0.9999925494194031,
        1.0,
        0.9999089241027832
      ],
      "min": [
        -0.9999865293502808,
        -0.9999351501464844,
        -0.9999416470527649
      ],
      "type": "VEC3"
    },
    {
      "bufferView": 1,
      "byteOffset": 524256,
      "componentType": 5126,
      "count": 65532,
      "max": [
        0.9998930096626282,
        0.9998530149459839
      ],
      "min": [
        9.600000339560211e-05,
        9.298324584960938e-05
      ],
      "type": "VEC2"
    },
    {
      "bufferView": 0,
      "byteOffset": 818172,
      "componentType": 5125,
      "count": 213981,
      "type": "SCALAR"
    },
    {
      "bufferView": 2,
      "byteOffset": 3145536,
      "componentType": 5126,
      "count": 65532,
      "max": [
        4.583632946014404,
        5.50319766998291,
        4.557310104370117
      ],
      "min": [
        -4.571928977966309,
        -10.604917526245117,
        -13.577332496643066
      ],
      "type": "VEC3"
    },
    {
      "bufferView": 2,
      "byteOffset": 3931920,
      "componentType": 5126,
      "count": 65532,
      "max": [
        0.9999994039535522,
        1.0,
        0.9999316334724426
      ],
      "min": [
        -0.999980092048645,
        -0.9999516010284424,
        -0.9999814033508301
      ],
      "type": "VEC3"
    },
    {
      "bufferView": 1,
      "byteOffset": 1048512,
      "componentType": 5126,
      "count": 65532,
      "max": [
        0.9998649954795837,
        0.999862015247345
      ],
      "min": [
        9.300000237999484e-05,
        9.298324584960938e-05
      ],
      "type": "VEC2"
    },
    {
      "bufferView": 0,
      "byteOffset": 1674096,
      "componentType": 5125,
      "count": 130539,
      "type": "SCALAR"
    },
    {
      "bufferView": 2,
      "byteOffset": 4718304,
      "componentType": 5126,
      "count": 65532,
      "max": [
        4.583632946014404,
        5.973393440246582,
        16.77549171447754
      ],
      "min": [
        -4.481598854064941,
        -10.567876815795898,
        -13.384685516357422
      ],
      "type": "VEC3"
    },
    {
      "bufferView": 2,
      "byteOffset": 5504688,
      "componentType": 5126,
      "count": 65532,
      "max": [
        0.99998939037323,
        0.9999802708625793,
        0.9999316334724426
      ],
      "min": [
        -0.9999847412109375,
        -0.9999818801879883,
        -0.999788761138916
      ],
      "type": "VEC3"
    },
    {
      "bufferView": 1,
      "byteOffset": 1572768,
      "componentType": 5126,
      "count": 65532,
      "max": [
        0.9998829960823059,
        0.9998540282249451
      ],
      "min": [
        9.7999996796716e-05,
        9.101629257202148e-05
      ],
      "type": "VEC2"
    },
    {
      "bufferView": 0,
      "byteOffset": 2196252,
      "componentType": 5125,
      "count": 127071,
      "type": "SCALAR"
    },
    {
      "bufferView": 2,
      "byteOffset": 6291072,
      "componentType": 5126,
      "count": 65533,
      "max": [
        4.186768054962158,
        7.918181419372559,
        7.952329158782959
      ],
      "min": [
        -4.433790683746338,
        -10.77688217163086,
        -9.721421241760254
      ],
      "type": "VEC3"
    },
    {
      "bufferView": 2,
      "byteOffset": 7077468,
      "componentType": 5126,
      "count": 65533,
      "max": [
        0.99998939037323,
        0.9997628927230835,
        0.9999640583992004
      ],
      "min": [
        -0.9999865293502808,
        -0.9999217987060547,
        -0.9999966621398926
      ],
      "type": "VEC3"
    },
    {
      "bufferView": 1,
      "byteOffset": 2097024,
      "componentType": 5126,
      "count": 65533,
      "max": [
        0.9998819828033447,
        0.9998630285263062
      ],
      "min": [
        9.300000237999484e-05,
        9.101629257202148e-05
      ],
      "type": "VEC2"
    },
    {
      "bufferView": 0,
      "byteOffset": 2704536,
      "componentType": 5125,
      "count": 158805,
      "type": "SCALAR"
    },
    {
      "bufferView": 2,
      "byteOffset": 7863864,
      "componentType": 5126,
      "count": 10626,
      "max": [
        4.005633354187012,
        7.821537971496582,
        16.722232818603516
      ],
      "min": [
        -4.37535285949707,
        -10.712407112121582,
        -13.449045181274414
      ],
      "type": "VEC3"
    },
    {
      "bufferView": 2,
      "byteOffset": 7991376,
      "componentType": 5126,
      "count": 10626,
      "max": [
        0.99998939037323,
        0.9997671842575073,
        0.9988622069358826
      ],
      "min": [
        -0.999968945980072,
        -0.9999217987060547,
        -0.9998602867126465
      ],
      "type": "VEC3"
    },
    {
      "bufferView": 1,
      "byteOffset": 2621288,
      "componentType": 5126,
      "count": 10626,
      "max": [
        0.9980270266532898,
        0.9987429976463318
      ],
      "min": [
        9.100000170292333e-05,
        0.00010097026824951172
      ],
      "type": "VEC2"
    },
    {
      "bufferView": 0,
      "byteOffset": 3339756,
      "componentType": 5125,
      "count": 13194,
      "type": "SCALAR"
    }
  ],
  "asset": {
    "extras": {
      "author": "Tavernier Amaury (https://sketchfab.com/svtavernier)",
      "license": "CC-BY-NC-SA-4.0 (http://creativecommons.org/licenses/by-nc-sa/4.0/)",
      "source": "https://sketchfab.com/3d-models/squelette-rhinoceros-452f06432d7445d98042f97d2889ef1b",
      "title": "Squelette rhinocéros"
    },
    "generator": "Sketchfab-16.28.0",
    "version": "2.0"
  },
  "bufferViews": [
    {
      "buffer": 0,
      "byteLength": 3392532,
      "name": "floatBufferViews",
      "target": 34963
    },
    {
      "buffer": 0,
      "byteLength": 2706296,
      "byteOffset": 3392532,
      "byteStride": 8,
      "name": "floatBufferViews",
      "target": 34962
    },
    {
      "buffer": 0,
      "byteLength": 8118888,
      "byteOffset": 6098828,
      "byteStride": 12,
      "name": "floatBufferViews",
      "target": 34962
    }
  ],
  "buffers": [
    {
      "byteLength": 14217716,
      "uri": "scene.bin"
    }
  ],
  "extensionsUsed": [
    "KHR_materials_specular"
  ],
  "images": [
    {
      "uri": "textures/rhino_baseColor.jpeg"
    },
    {
      "uri": "textures/rhino_specularf0.png"
    }
  ],
  "materials": [
    {
      "doubleSided": true,
      "extensions": {
        "KHR_materials_specular": {
          "specularColorFactor": [
            1.0,
            1.0,
            1.0
          ],
          "specularFactor": 1.0,
          "specularTexture": {
            "index": 1
          }
        }
      },
      "name": "rhino",
      "pbrMetallicRoughness": {
        "baseColorTexture": {
          "index": 0
        },
        "metallicFactor": 0.0
      }
    }
  ],
  "meshes": [
    {
      "name": "Object_0",
      "primitives": [
        {
          "attributes": {
            "NORMAL": 1,
            "POSITION": 0,
            "TEXCOORD_0": 2
          },
          "indices": 3,
          "material": 0,
          "mode": 4
        }
      ]
    },
    {
      "name": "Object_1",
      "primitives": [
        {
          "attributes": {
            "NORMAL": 5,
            "POSITION": 4,
            "TEXCOORD_0": 6
          },
          "indices": 7,
          "material": 0,
          "mode": 4
        }
      ]
    },
    {
      "name": "Object_2",
      "primitives": [
        {
          "attributes": {
            "NORMAL": 9,
            "POSITION": 8,
            "TEXCOORD_0": 10
          },
          "indices": 11,
          "material": 0,
          "mode": 4
        }
      ]
    },
    {
      "name": "Object_3",
      "primitives": [
        {
          "attributes": {
            "NORMAL": 13,
            "POSITION": 12,
            "TEXCOORD_0": 14
          },
          "indices": 15,
          "material": 0,
          "mode": 4
        }
      ]
    },
    {
      "name": "Object_4",
      "primitives": [
        {
          "attributes": {
            "NORMAL": 17,
            "POSITION": 16,
            "TEXCOORD_0": 18
          },
          "indices": 19,
          "material": 0,
          "mode": 4
        }
      ]
    },
    {
      "name": "Object_5",
      "primitives": [
        {
          "attributes": {
            "NORMAL": 21,
            "POSITION": 20,
            "TEXCOORD_0": 22
          },
          "indices": 23,
          "material": 0,
          "mode": 4
        }
      ]
    }
  ],
  "nodes": [
    {
      "children": [
        1
      ],
      "matrix": [
        1.0,
        0.0,
        0.0,
        0.0,
        0.0,
        2.220446049250313e-16,
        -1.0,
        0.0,
        0.0,
        1.0,
        2.220446049250313e-16,
        0.0,
        0.0,
        0.0,
        0.0,
        1.0
      ],
      "name": "Sketchfab_model"
    },
    {
      "children": [
        2
      ],
      "name": "root"
    },
    {
      "children": [
        3
      ],
      "matrix": [
        1.0,
        0.0,
        0.0,
        0.0,
        0.0,
        2.220446049250313e-16,
        1.0,
        0.0,
        0.0,
        -1.0,
        2.220446049250313e-16,
        0.0,
        0.0,
        0.0,
        0.0,
        1.0
      ],
      "name": "GLTF_SceneRootNode"
    },
    {
      "children": [
        4,
        5,
        6,
        7,
        8,
        9
      ],
      "matrix": [
        0.9996101150690276,
        0.027916957018431273,
        -0.0005112362628780057,
        0.0,
        -0.02790090697904329,
        0.9994059240425979,
        0.020232112551779143,
        0.0,
        0.00107575156620576,
        -0.020209960400558596,
        0.9997951791537983,
        0.0,
        0.0,
        10.872897148132324,
        3.942912371712737e-06,
        1.0
      ],
      "name": "rhino_1"
    },
    {
      "mesh": 0,
      "name": "Object_4"
    },
    {
      "mesh": 1,
      "name": "Object_5"
    },
    {
      "mesh": 2,
      "name": "Object_6"
    },
    {
      "mesh": 3,
      "name": "Object_7"
    },
    {
      "mesh": 4,
      "name": "Object_8"
    },
    {
      "mesh": 5,
      "name": "Object_9"
    }
  ],
  "samplers": [
    {
      "magFilter": 9729,
      "minFilter": 9987,
      "wrapS": 10497,
      "wrapT": 10497
    }
  ],
  "scene": 0,
  "scenes": [
    {
      "name": "Sketchfab_Scene",
      "nodes": [
        0
      ]
    }
  ],
  "textures": [
    {
      "sampler": 0,
      "source": 0
    },
    {
      "sampler": 0,
      "source": 1
    }
  ]
}
