{
  "accessors": [
    {
      "bufferView": 2,
      "componentType": 5126,
      "count": 65532,
      "max": [
        4.460126876831055,
        36.427268981933594,
        3.954134941101074
      ],
      "min": [
        -4.458130836486816,
        28.214399337768555,
        -1.7006850242614746
      ],
      "type": "VEC3"
    },
    {
      "bufferView": 2,
      "byteOffset": 786384,
      "componentType": 5126,
      "count": 65532,
      "max": [
        0.9998686909675598,
        0.9999932050704956,
        0.9999985098838806
      ],
      "min": [
        -0.9997727870941162,
        -0.9998359084129333,
        -0.9999911189079285
      ],
      "type": "VEC3"
    },
    {
      "bufferView": 3,
      "componentType": 5126,
      "count": 65532,
      "max": [
        1.0,
        1.0,
        1.0,
        1.0
      ],
      "min": [
        0.4156862795352936,
        0.4156862795352936,
        0.4156862795352936,
        1.0
      ],
      "type": "VEC4"
    },
    {
      "bufferView": 1,
      "componentType": 5126,
      "count": 65532,
      "max": [
        1.0,
        0.9375001192092896
      ],
      "min": [
        0.0,
        0.0
      ],
      "type": "VEC2"
    },
    {
      "bufferView": 0,
      "componentType": 5125,
      "count": 65532,
      "type": "SCALAR"
    },
    {
      "bufferView": 2,
      "byteOffset": 1572768,
      "componentType": 5126,
      "count": 65532,
      "max": [
        4.460216999053955,
        36.42741012573242,
        3.954134941101074
      ],
      "min": [
        -4.460361003875732,
        28.20220947265625,
        -1.4754810333251953
      ],
      "type": "VEC3"
    },
    {
      "bufferView": 2,
      "byteOffset": 2359152,
      "componentType": 5126,
      "count": 65532,
      "max": [
        0.99998939037323,
        0.9999585151672363,
        0.9999983906745911
      ],
      "min": [
        -0.9999420046806335,
        -0.9997930526733398,
        -0.999965488910675
      ],
      "type": "VEC3"
    },
    {
      "bufferView": 3,
      "byteOffset": 1048512,
      "componentType": 5126,
      "count": 65532,
      "max": [
        1.0,
        1.0,
        1.0,
        1.0
      ],
      "min": [
        0.4156862795352936,
        0.4156862795352936,
        0.4156862795352936,
        1.0
      ],
      "type": "VEC4"
    },
    {
      "bufferView": 1,
      "byteOffset": 524256,
      "componentType": 5126,
      "count": 65532,
      "max": [
        0.0,
        0.0
      ],
      "min": [
        0.0,
        0.0
      ],
      "type": "VEC2"
    },
    {
      "bufferView": 0,
      "byteOffset": 262128,
      "componentType": 5125,
      "count": 65532,
      "type": "SCALAR"
    },
    {
      "bufferView": 2,
      "byteOffset": 3145536,
      "componentType": 5126,
      "count": 65532,
      "max": [
        4.460216999053955,
        34.939090728759766,
        3.927151918411255
      ],
      "min": [
        -4.460361003875732,
        28.20220947265625,
        -1.4754810333251953
      ],
      "type": "VEC3"
    },
    {
      "bufferView": 2,
      "byteOffset": 3931920,
      "componentType": 5126,
      "count": 65532,
      "max": [
        0.999913215637207,
        0.999067485332489,
        0.9999997019767761
      ],
      "min": [
        -0.9999086856842041,
        -0.9999681115150452,
        -0.9997273087501526
      ],
      "type": "VEC3"
    },
    {
      "bufferView": 3,
      "byteOffset": 2097024,
      "componentType": 5126,
      "count": 65532,
      "max": [
        1.0,
        1.0,
        1.0,
        1.0
      ],
      "min": [
        0.4156862795352936,
        0.4156862795352936,
        0.4156862795352936,
        1.0
      ],
      "type": "VEC4"
    },
    {
      "bufferView": 1,
      "byteOffset": 1048512,
      "componentType": 5126,
      "count": 65532,
      "max": [
        0.0,
        0.0
      ],
      "min": [
        0.0,
        0.0
      ],
      "type": "VEC2"
    },
    {
      "bufferView": 0,
      "byteOffset": 524256,
      "componentType": 5125,
      "count": 65532,
      "type": "SCALAR"
    },
    {
      "bufferView": 2,
      "byteOffset": 4718304,
      "componentType": 5126,
      "count": 65532,
      "max": [
        4.460216999053955,
        36.42741012573242,
        3.935762882232666
      ],
      "min": [
        -4.460361003875732,
        28.20220947265625,
        -1.4754810333251953
      ],
      "type": "VEC3"
    },
    {
      "bufferView": 2,
      "byteOffset": 5504688,
      "componentType": 5126,
      "count": 65532,
      "max": [
        0.9999892115592957,
        0.9998548626899719,
        0.999997079372406
      ],
      "min": [
        -0.9998230934143066,
        -0.9996888637542725,
        -0.99979567527771
      ],
      "type": "VEC3"
    },
    {
      "bufferView": 3,
      "byteOffset": 3145536,
      "componentType": 5126,
      "count": 65532,
      "max": [
        1.0,
        1.0,
        1.0,
        1.0
      ],
      "min": [
        0.4156862795352936,
        0.4156862795352936,
        0.4156862795352936,
        1.0
      ],
      "type": "VEC4"
    },
    {
      "bufferView": 1,
      "byteOffset": 1572768,
      "componentType": 5126,
      "count": 65532,
      "max": [
        0.0,
        0.0
      ],
      "min": [
        0.0,
        0.0
      ],
      "type": "VEC2"
    },
    {
      "bufferView": 0,
      "byteOffset": 786384,
      "componentType": 5125,
      "count": 65532,
      "type": "SCALAR"
    },
    {
      "bufferView": 2,
      "byteOffset": 6291072,
      "componentType": 5126,
      "count": 65532,
      "max": [
        4.446903228759766,
        36.95063018798828,
        3.7044930458068848
      ],
      "min": [
        -4.422836780548096,
        28.202909469604492,
        -1.88264000415802
      ],
      "type": "VEC3"
    },
    {
      "bufferView": 2,
      "byteOffset": 7077456,
      "componentType": 5126,
      "count": 65532,
      "max": [
        0.9999622702598572,
        0.9999207854270935,
        0.9999619722366333
      ],
      "min": [
        -0.99997478723526,
        -0.9999862909317017,
        -0.9999883770942688
      ],
      "type": "VEC3"
    },
    {
      "bufferView": 3,
      "byteOffset": 4194048,
      "componentType": 5126,
      "count": 65532,
      "max": [
        1.0,
        1.0,
        1.0,
        1.0
      ],
      "min": [
        0.41960784792900085,
        0.41960784792900085,
        0.41960784792900085,
        1.0
      ],
      "type": "VEC4"
    },
    {
      "bufferView": 1,
      "byteOffset": 2097024,
      "componentType": 5126,
      "count": 65532,
      "max": [
        1.0,
        1.0
      ],
      "min": [
        0.0,
        0.0
      ],
      "type": "VEC2"
    },
    {
      "bufferView": 0,
      "byteOffset": 1048512,
      "componentType": 5125,
      "count": 65532,
      "type": "SCALAR"
    },
    {
      "bufferView": 2,
      "byteOffset": 7863840,
      "componentType": 5126,
      "count": 65532,
      "max": [
        2.258357048034668,
        36.61389923095703,
        3.7979540824890137
      ],
      "min": [
        -2.1153740882873535,
        31.433349609375,
        -1.7020820379257202
      ],
      "type": "VEC3"
    },
    {
      "bufferView": 2,
      "byteOffset": 8650224,
      "componentType": 5126,
      "count": 65532,
      "max": [
        0.9999781847000122,
        0.9999393820762634,
        0.9999682903289795
      ],
      "min": [
        -0.9999973773956299,
        -0.9999504089355469,
        -0.9998875856399536
      ],
      "type": "VEC3"
    },
    {
      "bufferView": 3,
      "byteOffset": 5242560,
      "componentType": 5126,
      "count": 65532,
      "max": [
        1.0,
        1.0,
        1.0,
        1.0
      ],
      "min": [
        0.5411764979362488,
        0.5411764979362488,
        0.5411764979362488,
        1.0
      ],
      "type": "VEC4"
    },
    {
      "bufferView": 1,
      "byteOffset": 2621280,
      "componentType": 5126,
      "count": 65532,
      "max": [
        0.0,
        0.0
      ],
      "min": [
        0.0,
        0.0
      ],
      "type": "VEC2"
    },
    {
      "bufferView": 0,
      "byteOffset": 1310640,
      "componentType": 5125,
      "count": 65532,
      "type": "SCALAR"
    },
    {
      "bufferView": 2,
      "byteOffset": 9436608,
      "componentType": 5126,
      "count": 12468,
      "max": [
        2.0530340671539307,
        36.585819244384766,
        3.7979540824890137
      ],
      "min": [
        -2.05954909324646,
        31.420780181884766,
        -1.650715947151184
      ],
      "type": "VEC3"
    },
    {
      "bufferView": 2,
      "byteOffset": 9586224,
      "componentType": 5126,
      "count": 12468,
      "max": [
        0.9997789859771729,
        0.9988785982131958,
        0.9997683763504028
      ],
      "min": [
        -0.9999061822891235,
        -0.9996486902236938,
        -0.9993250966072083
      ],
      "type": "VEC3"
    },
    {
      "bufferView": 3,
      "byteOffset": 6291072,
      "componentType": 5126,
      "count": 12468,
      "max": [
        1.0,
        1.0,
        1.0,
        1.0
      ],
      "min": [
        0.5411764979362488,
        0.5411764979362488,
        0.5411764979362488,
        1.0
      ],
      "type": "VEC4"
    },
    {
      "bufferView": 1,
      "byteOffset": 3145536,
      "componentType": 5126,
      "count": 12468,
      "max": [
        0.0,
        0.0
      ],
      "min": [
        0.0,
        0.0
      ],
      "type": "VEC2"
    },
    {
      "bufferView": 0,
      "byteOffset": 1572768,
      "componentType": 5125,
      "count": 12468,
      "type": "SCALAR"
    }
  ],
  "asset": {
    "extras": {
      "author": "Annika Schwartz (https://sketchfab.com/wishberry)",
      "license": "CC-BY-4.0 (http://creativecommons.org/licenses/by/4.0/)",
      "source": "https://sketchfab.com/3d-models/greek-statue-head-6310ffd720aa4a478c1d476dd7141c6b",
      "title": "Greek Statue Head"
    },
    "generator": "Sketchfab-12.68.0",
    "version": "2.0"
  },
  "bufferViews": [
    {
      "buffer": 0,
      "byteLength": 1622640,
      "name": "floatBufferViews",
      "target": 34963
    },
    {
      "buffer": 0,
      "byteLength": 3245280,
      "byteOffset": 1622640,
      "byteStride": 8,
      "name": "floatBufferViews",
      "target": 34962
    },
    {
      "buffer": 0,
      "byteLength": 9735840,
      "byteOffset": 4867920,
      "byteStride": 12,
      "name": "floatBufferViews",
      "target": 34962
    },
    {
      "buffer": 0,
      "byteLength": 6490560,
      "byteOffset": 14603760,
      "byteStride": 16,
      "name": "floatBufferViews",
      "target": 34962
    }
  ],
  "buffers": [
    {
      "byteLength": 21094320,
      "uri": "scene.bin"
    }
  ],
  "materials": [
    {
      "doubleSided": true,
      "name": "lambert1",
      "pbrMetallicRoughness": {
        "baseColorFactor": [
          0.5,
          0.5,
          0.5,
          1.0
        ],
        "metallicFactor": 0.396921304318747,
        "roughnessFactor": 0.6401282308520146
      }
    }
  ],
  "meshes": [
    {
      "name": "lambert1-material",
      "primitives": [
        {
          "attributes": {
            "COLOR_0": 2,
            "NORMAL": 1,
            "POSITION": 0,
            "TEXCOORD_0": 3
          },
          "indices": 4,
          "material": 0,
          "mode": 4
        }
      ]
    },
    {
      "name": "lambert1-material",
      "primitives": [
        {
          "attributes": {
            "COLOR_0": 7,
            "NORMAL": 6,
            "POSITION": 5,
            "TEXCOORD_0": 8
          },
          "indices": 9,
          "material": 0,
          "mode": 4
        }
      ]
    },
    {
      "name": "lambert1-material",
      "primitives": [
        {
          "attributes": {
            "COLOR_0": 12,
            "NORMAL": 11,
            "POSITION": 10,
            "TEXCOORD_0": 13
          },
          "indices": 14,
          "material": 0,
          "mode": 4
        }
      ]
    },
    {
      "name": "lambert1-material",
      "primitives": [
        {
          "attributes": {
            "COLOR_0": 17,
            "NORMAL": 16,
            "POSITION": 15,
            "TEXCOORD_0": 18
          },
          "indices": 19,
          "material": 0,
          "mode": 4
        }
      ]
    },
    {
      "name": "lambert1-material",
      "primitives": [
        {
          "attributes": {
            "COLOR_0": 22,
            "NORMAL": 21,
            "POSITION": 20,
            "TEXCOORD_0": 23
          },
          "indices": 24,
          "material": 0,
          "mode": 4
        }
      ]
    },
    {
      "name": "lambert1-material",
      "primitives": [
        {
          "attributes": {
            "COLOR_0": 27,
            "NORMAL": 26,
            "POSITION": 25,
            "TEXCOORD_0": 28
          },
          "indices": 29,
          "material": 0,
          "mode": 4
        }
      ]
    },
    {
      "name": "lambert1-material",
      "primitives": [
        {
          "attributes": {
            "COLOR_0": 32,
            "NORMAL": 31,
            "POSITION": 30,
            "TEXCOORD_0": 33
          },
          "indices": 34,
          "material": 0,
          "mode": 4
        }
      ]
    }
  ],
  "nodes": [
    {
      "children": [
        1
      ],
      "matrix": [
        1.0,
        0.0,
        0.0,
        0.0,
        0.0,
        2.220446049250313e-16,
        -1.0,
        0.0,
        0.0,
        1.0,
        2.220446049250313e-16,
        0.0,
        0.0,
        0.0,
        0.0,
        1.0
      ],
      "name": "Sketchfab_model"
    },
    {
      "children": [
        2,
        4,
        6
      ],
      "name": "Collada visual scene group"
    },
    {
      "children": [
        3
      ],
      "matrix": [
        0.6859207,
        0.7276763,
        0.0,
        0.0,
        -0.3240135,
        0.3054208,
        0.8953956,
        0.0,
        0.6515582,
        -0.6141704,
        0.4452714,
        0.0,
        7.358891,
        -6.925791,
        4.945773,
        1.0
      ],
      "name": "Camera"
    },
    {
      "name": "Camera-camera"
    },
    {
      "children": [
        5
      ],
      "matrix": [
        -0.2908646,
        0.9551712,
        -0.05518906,
        0.0,
        -0.7711008,
        -0.1998834,
        0.6045247,
        0.0,
        0.5663932,
        0.2183912,
        0.7946723,
        0.0,
        4.076245,
        1.005454,
        5.903862,
        1.0
      ],
      "name": "Light"
    },
    {
      "name": "Light"
    },
    {
      "children": [
        7,
        8,
        9,
        10,
        11,
        12,
        13
      ],
      "matrix": [
        0.03806297,
        0.0,
        0.0,
        0.0,
        0.0,
        -6.20125e-09,
        0.03806297,
        0.0,
        0.0,
        -0.03806297,
        -6.20125e-09,
        0.0,
        -0.07317066,
        0.0377455,
        -1.113102,
        1.0
      ],
      "name": "polySurface9"
    },
    {
      "mesh": 0,
      "name": "lambert1-material"
    },
    {
      "mesh": 1,
      "name": "lambert1-material"
    },
    {
      "mesh": 2,
      "name": "lambert1-material"
    },
    {
      "mesh": 3,
      "name": "lambert1-material"
    },
    {
      "mesh": 4,
      "name": "lambert1-material"
    },
    {
      "mesh": 5,
      "name": "lambert1-material"
    },
    {
      "mesh": 6,
      "name": "lambert1-material"
    }
  ],
  "scene": 0,
  "scenes": [
    {
      "name": "Sketchfab_Scene",
      "nodes": [
        0
      ]
    }
  ]
}
